# xmcd CD database file
#
# Track frame offsets:
#	150
#	17786
#	46847
#	81962
#	104965
#	138276
#	159421
#	183101
#	214534
#	266564
#
# Disc length: 4127 seconds
#
# Revision: 0
# Processed by: cddbd v1.4PL0 Copyright (c) Steve Scherf et al.
# Submitted via: CDex 1.40Release
#
DISCID=82101d0a
DTITLE=Corey Harris and the 5x5 - Live at Starr Hill (1/27/01) - 5x5 Set
DYEAR=2001
DGENRE=Blues
TTITLE0=5-0 Blues
TTITLE1=Lynch Blues
TTITLE2=Sista Rose
TTITLE3=Wild West
TTITLE4=Lambsbread
TTITLE5=Black Maria
TTITLE6=E La Bas
TTITLE7=A Closer Walk With Thee
TTITLE8=Basehead
TTITLE9=Sweet Black Angel
EXTD=YEAR: 2001 ID3G: 0
EXTT0=
EXTT1=
EXTT2=
EXTT3=
EXTT4=
EXTT5=
EXTT6=
EXTT7=
EXTT8=
EXTT9=
PLAYORDER=
